<svg width="21" height="21" viewBox="0 0 21 21" fill="none" xmlns="http://www.w3.org/2000/svg">
<path d="M10.5407 20.9026L4.32391 13.5805C3.07478 12.1082 2.38672 10.2367 2.38672 8.31084C2.38672 3.81456 6.04465 0.15686 10.5407 0.15686C15.0368 0.15686 18.6949 3.81479 18.6949 8.31084C18.6949 10.2367 18.0068 12.1082 16.7575 13.5805L10.5407 20.9026ZM10.5407 0.834784C6.4183 0.834784 3.06464 4.18844 3.06464 8.31084C3.06464 10.0763 3.69554 11.792 4.8407 13.1418L10.5407 19.8554L16.2407 13.1418C17.3861 11.7922 18.017 10.0763 18.017 8.31084C18.0168 4.18844 14.6631 0.834784 10.5407 0.834784ZM10.5407 11.5949C8.58162 11.5949 6.98788 10.0009 6.98788 8.04184C6.98788 6.08276 8.58185 4.48879 10.5407 4.48879C12.4998 4.48879 14.0935 6.08276 14.0935 8.04184C14.0935 10.0009 12.4998 11.5949 10.5407 11.5949ZM10.5407 5.16672C8.95527 5.16672 7.66558 6.45664 7.66558 8.04184C7.66558 9.62704 8.95527 10.917 10.5407 10.917C12.1261 10.917 13.4158 9.62704 13.4158 8.04184C13.4158 6.45664 12.1259 5.16672 10.5407 5.16672Z" fill="#F39221"/>
</svg>
