<svg xmlns="http://www.w3.org/2000/svg" width="132.709" height="471.188" viewBox="0 0 132.709 471.188">
  <g id="Group_2005" data-name="Group 2005" transform="translate(-1830.093 -1447.312)">
    <path id="Path_4319" data-name="Path 4319" d="M-8934.907,2144.073l67.039,76.616,65.67-76.616v-54.725l-65.67,73.879-67.039-73.879v47.885" transform="translate(10765 -302.189)" fill="#4c903f"/>
    <path id="Path_4320" data-name="Path 4320" d="M-8934.907,2144.073l67.039,76.616,65.67-76.616v-54.725l-65.67,73.879-67.039-73.879v47.885" transform="translate(10765 -410.189)" fill="#4c903f"/>
    <path id="Path_4321" data-name="Path 4321" d="M-8934.907,2144.073l67.039,76.616,65.67-76.616v-54.725l-65.67,73.879-67.039-73.879v47.885" transform="translate(10765 -531.189)" fill="#4c903f"/>
    <path id="Path_4322" data-name="Path 4322" d="M-8934.907,2144.073l67.039,76.616,65.67-76.616v-54.725l-65.67,73.879-67.039-73.879v47.885" transform="translate(10765 -642.036)" fill="#4c903f"/>
  </g>
</svg>
