<svg xmlns="http://www.w3.org/2000/svg" width="132.709" height="471.188" viewBox="0 0 132.709 471.188">
  <g id="Group_1973" data-name="Group 1973" transform="translate(-65.093 -380.812)">
    <path id="Path_4319" data-name="Path 4319" d="M-8934.907,2165.964l67.039-76.616,65.67,76.616v54.725l-65.67-73.879-67.039,73.879V2172.8" transform="translate(9000 -1708.536)" fill="#e2e2e2"/>
    <path id="Path_4320" data-name="Path 4320" d="M-8934.907,2165.964l67.039-76.616,65.67,76.616v54.725l-65.67-73.879-67.039,73.879V2172.8" transform="translate(9000 -1600.536)" fill="#e2e2e2"/>
    <path id="Path_4321" data-name="Path 4321" d="M-8934.907,2165.964l67.039-76.616,65.67,76.616v54.725l-65.67-73.879-67.039,73.879V2172.8" transform="translate(9000 -1479.536)" fill="#e2e2e2"/>
    <path id="Path_4322" data-name="Path 4322" d="M-8934.907,2165.964l67.039-76.616,65.67,76.616v54.725l-65.67-73.879-67.039,73.879V2172.8" transform="translate(9000 -1368.689)" fill="#e2e2e2"/>
  </g>
</svg>
