<svg id="Group_175" data-name="Group 175" xmlns="http://www.w3.org/2000/svg" xmlns:xlink="http://www.w3.org/1999/xlink" width="38.88" height="37.366" viewBox="0 0 38.88 37.366">
  <defs>
    <clipPath id="clip-path">
      <rect id="Rectangle_52" data-name="Rectangle 52" width="38.88" height="37.366" fill="#4c903f"/>
    </clipPath>
  </defs>
  <g id="Group_174" data-name="Group 174" clip-path="url(#clip-path)">
    <path id="Path_176" data-name="Path 176" d="M41.924,9.127c-2.144,0-3.888-2.047-3.888-4.563S39.78,0,41.924,0s3.888,2.047,3.888,4.563-1.744,4.563-3.888,4.563m0-7.9c-1.465,0-2.657,1.5-2.657,3.333S40.459,7.9,41.924,7.9s2.657-1.5,2.657-3.333-1.192-3.333-2.657-3.333" transform="translate(-34.65)" fill="#4c903f"/>
    <path id="Path_177" data-name="Path 177" d="M35.606,204.831a.615.615,0,0,1-.615-.615v-8a.615.615,0,1,1,1.231,0v8a.615.615,0,0,1-.615.615" transform="translate(-31.876 -178.19)" fill="#4c903f"/>
    <path id="Path_178" data-name="Path 178" d="M115.226,204.643a.615.615,0,0,1-.615-.615v-7.81a.615.615,0,1,1,1.231,0v7.81a.615.615,0,0,1-.615.615" transform="translate(-104.409 -178.19)" fill="#4c903f"/>
    <path id="Path_179" data-name="Path 179" d="M75.415,297.411a.615.615,0,0,1-.615-.615V286.07a.615.615,0,1,1,1.231,0V296.8a.615.615,0,0,1-.615.615" transform="translate(-68.141 -260.044)" fill="#4c903f"/>
    <path id="Path_180" data-name="Path 180" d="M248.5,126.442a.616.616,0,0,1-.5-.259,16.73,16.73,0,0,1-2.613-13.725,20.388,20.388,0,0,1,2.605-6.346.615.615,0,0,1,1.019,0,20.388,20.388,0,0,1,2.605,6.346A16.73,16.73,0,0,1,249,126.183a.616.616,0,0,1-.5.259m0-18.775a20.37,20.37,0,0,0-1.925,5.106,15.262,15.262,0,0,0,1.925,11.949,15.263,15.263,0,0,0,1.925-11.949,20.374,20.374,0,0,0-1.925-5.106" transform="translate(-223.106 -96.419)" fill="#4c903f"/>
    <path id="Path_181" data-name="Path 181" d="M147.195,236.608h-.026a15.147,15.147,0,0,1-10.325-4.632,16.161,16.161,0,0,1-3.086-4.341.615.615,0,0,1,.6-.862,18.653,18.653,0,0,1,5.392,1.341,14.117,14.117,0,0,1,8.012,7.643.615.615,0,0,1-.569.85m-11.763-8.455a16.231,16.231,0,0,0,2.323,2.994A13.7,13.7,0,0,0,146.2,235.3a12.924,12.924,0,0,0-6.878-6.033,18.619,18.619,0,0,0-3.889-1.115" transform="translate(-121.804 -206.585)" fill="#4c903f"/>
    <path id="Path_182" data-name="Path 182" d="M147.251,324.644a14.046,14.046,0,0,1-2.9-.275.615.615,0,0,1-.318-1.012,13.844,13.844,0,0,1,3.491-2.6,12.524,12.524,0,0,1,9.084-1.189.615.615,0,0,1,.315,1,12.022,12.022,0,0,1-8.112,4c-.554.055-1.079.076-1.56.076m-2.762-.875h0Zm1.365-.423a14.9,14.9,0,0,0,2.875-.007,10.865,10.865,0,0,0,6.511-2.8,11.216,11.216,0,0,0-7.1,1.277,13.767,13.767,0,0,0-2.287,1.528" transform="translate(-131.066 -290.774)" fill="#4c903f"/>
    <path id="Path_183" data-name="Path 183" d="M243.269,329.385a.616.616,0,0,1-.517-.948l3.175-4.949a.615.615,0,1,1,1.036.664l-3.175,4.949a.615.615,0,0,1-.519.283" transform="translate(-221.054 -294.434)" fill="#4c903f"/>
    <path id="Path_184" data-name="Path 184" d="M278.936,236.607a.615.615,0,0,1-.569-.85,14.117,14.117,0,0,1,8.012-7.643,18.653,18.653,0,0,1,5.392-1.341.615.615,0,0,1,.6.862,16.155,16.155,0,0,1-3.086,4.341,15.146,15.146,0,0,1-10.325,4.632h-.026m11.764-8.456a18.62,18.62,0,0,0-3.89,1.116,12.923,12.923,0,0,0-6.878,6.033,13.7,13.7,0,0,0,8.475-4.187,16.208,16.208,0,0,0,2.293-2.962" transform="translate(-253.545 -206.584)" fill="#4c903f"/>
    <path id="Path_185" data-name="Path 185" d="M288.143,324.643c-.482,0-1.006-.021-1.56-.076a12.022,12.022,0,0,1-8.112-4,.615.615,0,0,1,.315-1,12.523,12.523,0,0,1,9.084,1.189,13.844,13.844,0,0,1,3.491,2.6.615.615,0,0,1-.318,1.012,14.054,14.054,0,0,1-2.9.275m-7.987-4.1c3.158,2.94,7.339,2.994,9.382,2.8a13.76,13.76,0,0,0-2.286-1.527,11.212,11.212,0,0,0-7.1-1.278" transform="translate(-253.545 -290.773)" fill="#4c903f"/>
    <path id="Path_186" data-name="Path 186" d="M282.112,329.384a.615.615,0,0,1-.519-.283l-3.175-4.949a.615.615,0,0,1,1.036-.665l3.175,4.949a.616.616,0,0,1-.517.948" transform="translate(-253.545 -294.433)" fill="#4c903f"/>
    <path id="Path_187" data-name="Path 187" d="M278.936,245.865a.615.615,0,0,1-.615-.615V229.488a.615.615,0,1,1,1.231,0V245.25a.615.615,0,0,1-.615.615" transform="translate(-253.545 -208.499)" fill="#4c903f"/>
    <path id="Path_188" data-name="Path 188" d="M12.055,133.33a.489.489,0,0,0-.162.03,1.553,1.553,0,0,1-.515.088h-.56a.615.615,0,0,0-.615.615l-.008,9.436a.867.867,0,0,1-.519.76,1.167,1.167,0,0,1-.507.1H5.379a1.166,1.166,0,0,1-.507-.1.867.867,0,0,1-.519-.76l-.008-9.436a.615.615,0,0,0-.615-.615H3.17A1.305,1.305,0,0,1,1.793,132.3l-.56-10.438a1.6,1.6,0,0,1,.448-1.2,2.078,2.078,0,0,1,1.518-.632h8.147a2.078,2.078,0,0,1,1.518.632,1.6,1.6,0,0,1,.447,1.209l-.264,4.925a.615.615,0,1,0,1.229.066l.264-4.918a2.817,2.817,0,0,0-.778-2.123,3.312,3.312,0,0,0-2.416-1.021H3.2a3.312,3.312,0,0,0-2.416,1.021,2.814,2.814,0,0,0-.779,2.117l.559,10.431a2.527,2.527,0,0,0,2.55,2.309l.008,8.822a2.088,2.088,0,0,0,1.209,1.864,2.364,2.364,0,0,0,1.048.227h3.79a2.364,2.364,0,0,0,1.048-.227,2.088,2.088,0,0,0,1.209-1.864l.008-8.822a2.775,2.775,0,0,0,.861-.153.616.616,0,0,0-.209-1.195Z" transform="translate(0.001 -108.226)" fill="#4c903f"/>
  </g>
</svg>
