<svg width="18" height="16" viewBox="0 0 18 16" fill="none" xmlns="http://www.w3.org/2000/svg">
<g clip-path="url(#clip0_49_939)">
<path d="M6 1.33325V3.33325" stroke="#F39221" stroke-width="1.5" stroke-linecap="round" stroke-linejoin="round"/>
<path d="M12 1.33325V3.33325" stroke="#F39221" stroke-width="1.5" stroke-linecap="round" stroke-linejoin="round"/>
<path d="M2.625 6.06006H15.375" stroke="#F39221" stroke-linecap="round" stroke-linejoin="round"/>
<path d="M15.75 5.66665V11.3333C15.75 13.3333 14.625 14.6666 12 14.6666H6C3.375 14.6666 2.25 13.3333 2.25 11.3333V5.66665C2.25 3.66665 3.375 2.33331 6 2.33331H12C14.625 2.33331 15.75 3.66665 15.75 5.66665Z" stroke="#F39221" stroke-linecap="round" stroke-linejoin="round"/>
<path d="M11.7715 9.1333H11.7754" stroke="#F39221" stroke-width="2" stroke-linecap="round" stroke-linejoin="round"/>
<path d="M11.7715 11.1333H11.7754" stroke="#F39221" stroke-width="2" stroke-linecap="round" stroke-linejoin="round"/>
<path d="M8.99609 9.1333H9.00005" stroke="#F39221" stroke-width="2" stroke-linecap="round" stroke-linejoin="round"/>
<path d="M8.99609 11.1333H9.00005" stroke="#F39221" stroke-width="2" stroke-linecap="round" stroke-linejoin="round"/>
<path d="M6.2207 9.1333H6.22466" stroke="#F39221" stroke-width="2" stroke-linecap="round" stroke-linejoin="round"/>
<path d="M6.2207 11.1333H6.22466" stroke="#F39221" stroke-width="2" stroke-linecap="round" stroke-linejoin="round"/>
</g>
<defs>
<clipPath id="clip0_49_939">
<rect width="18" height="16" fill="white"/>
</clipPath>
</defs>
</svg>
