<svg xmlns="http://www.w3.org/2000/svg" xmlns:xlink="http://www.w3.org/1999/xlink" width="44.22" height="39.139" viewBox="0 0 44.22 39.139">
  <defs>
    <clipPath id="clip-path">
      <rect id="Rectangle_53" data-name="Rectangle 53" width="44.22" height="39.139" fill="#4c903f"/>
    </clipPath>
  </defs>
  <g id="Group_176" data-name="Group 176" clip-path="url(#clip-path)">
    <path id="Path_189" data-name="Path 189" d="M106.455,24.123a.78.78,0,0,1-.636-.329,19.548,19.548,0,0,1-3.054-16.038A23.816,23.816,0,0,1,105.809.344a.78.78,0,0,1,1.292,0,23.823,23.823,0,0,1,3.044,7.413,19.548,19.548,0,0,1-3.054,16.038.78.78,0,0,1-.636.329m0-21.8a23.676,23.676,0,0,0-2.182,5.833,17.719,17.719,0,0,0,2.182,13.781,17.719,17.719,0,0,0,2.181-13.781,23.682,23.682,0,0,0-2.181-5.833" transform="translate(-90.68 -0.001)" fill="#4c903f"/>
    <path id="Path_190" data-name="Path 190" d="M15.775,122.739h-.033a17.7,17.7,0,0,1-12.069-5.414A18.888,18.888,0,0,1,.066,112.25a.78.78,0,0,1,.762-1.092,21.8,21.8,0,0,1,6.3,1.567,16.505,16.505,0,0,1,9.367,8.937.78.78,0,0,1-.721,1.077M2.2,112.913a18.875,18.875,0,0,0,2.629,3.361,15.892,15.892,0,0,0,9.676,4.8,15.018,15.018,0,0,0-7.921-6.891A21.616,21.616,0,0,0,2.2,112.913" transform="translate(0 -98.617)" fill="#4c903f"/>
    <path id="Path_191" data-name="Path 191" d="M13.343,202.581a16.434,16.434,0,0,1-3.393-.322.78.78,0,0,1-.4-1.283,16.2,16.2,0,0,1,4.083-3.046,14.649,14.649,0,0,1,10.627-1.391.78.78,0,0,1,.4,1.267,14.065,14.065,0,0,1-9.49,4.686c-.647.064-1.26.089-1.822.089M10.125,201.5h0Zm1.75-.542a17.285,17.285,0,0,0,3.186-.022,12.625,12.625,0,0,0,7.446-3.154,13.016,13.016,0,0,0-8.095,1.5,15.951,15.951,0,0,0-2.538,1.677" transform="translate(-8.291 -173.977)" fill="#4c903f"/>
    <path id="Path_192" data-name="Path 192" d="M100.92,207.117a.78.78,0,0,1-.656-1.2l3.7-5.764a.78.78,0,1,1,1.313.842l-3.7,5.764a.779.779,0,0,1-.657.359" transform="translate(-88.844 -177.255)" fill="#4c903f"/>
    <path id="Path_193" data-name="Path 193" d="M133.7,122.74a.78.78,0,0,1-.721-1.077,16.506,16.506,0,0,1,9.367-8.937,21.8,21.8,0,0,1,6.3-1.567.78.78,0,0,1,.762,1.092,15.147,15.147,0,0,1-1.16,2.042.78.78,0,1,1-1.3-.859c.121-.184.231-.357.33-.52a21.624,21.624,0,0,0-4.386,1.273,15.018,15.018,0,0,0-7.921,6.89,15.969,15.969,0,0,0,4.067-1.026.78.78,0,0,1,.58,1.448,17.785,17.785,0,0,1-5.885,1.24H133.7" transform="translate(-117.929 -98.618)" fill="#4c903f"/>
    <path id="Path_194" data-name="Path 194" d="M137.727,204.429a.775.775,0,0,1-.337-.077,13.172,13.172,0,0,1-4.277-3.269.78.78,0,0,1,1.179-1.021,11.624,11.624,0,0,0,3.773,2.884.78.78,0,0,1-.339,1.483" transform="translate(-117.928 -177.254)" fill="#4c903f"/>
    <path id="Path_195" data-name="Path 195" d="M137.4,207.117a.779.779,0,0,1-.657-.359l-3.7-5.764a.78.78,0,1,1,1.313-.842l3.7,5.764a.78.78,0,0,1-.656,1.2" transform="translate(-117.929 -177.254)" fill="#4c903f"/>
    <path id="Path_196" data-name="Path 196" d="M133.7,133.007a.78.78,0,0,1-.78-.78V113.868a.78.78,0,0,1,1.56,0v18.359a.78.78,0,0,1-.78.78" transform="translate(-117.929 -100.331)" fill="#4c903f"/>
    <path id="Path_197" data-name="Path 197" d="M203.826,167.9a9.113,9.113,0,1,1,9.113-9.114,9.124,9.124,0,0,1-9.113,9.114m0-16.667a7.554,7.554,0,1,0,7.554,7.554,7.562,7.562,0,0,0-7.554-7.554" transform="translate(-172.747 -132.789)" fill="#4c903f"/>
    <path id="Path_198" data-name="Path 198" d="M322.686,278.427a.778.778,0,0,1-.551-.228l-1.11-1.11a.78.78,0,0,1,1.1-1.1l1.11,1.11a.78.78,0,0,1-.552,1.331" transform="translate(-284.608 -244.649)" fill="#4c903f"/>
    <path id="Path_199" data-name="Path 199" d="M338.645,295.238a.778.778,0,0,1-.552-.228l-4.163-4.162a.78.78,0,0,1,0-1.1l.854-.853a.78.78,0,0,1,1.1,0l4.163,4.163a.78.78,0,0,1,0,1.1l-.853.853a.778.778,0,0,1-.551.228" transform="translate(-296.059 -256.099)" fill="#4c903f"/>
    <path id="Path_200" data-name="Path 200" d="M274.207,187.041a.78.78,0,0,1-.78-.78,4.065,4.065,0,0,0-4.06-4.06.78.78,0,0,1,0-1.56,5.626,5.626,0,0,1,5.62,5.62.78.78,0,0,1-.78.78" transform="translate(-238.288 -160.263)" fill="#4c903f"/>
  </g>
</svg>
