<svg id="Group_171" data-name="Group 171" xmlns="http://www.w3.org/2000/svg" xmlns:xlink="http://www.w3.org/1999/xlink" width="38.307" height="40.467" viewBox="0 0 38.307 40.467">
  <defs>
    <clipPath id="clip-path">
      <rect id="Rectangle_50" data-name="Rectangle 50" width="38.307" height="40.467" fill="#4c903f"/>
    </clipPath>
  </defs>
  <g id="Group_170" data-name="Group 170" clip-path="url(#clip-path)">
    <path id="Path_158" data-name="Path 158" d="M164.59,28.448a.617.617,0,0,1-.5-.254,22.53,22.53,0,0,1-4.186-10.134,24.175,24.175,0,0,1,.463-8.96A28.034,28.034,0,0,1,164.084.265a.617.617,0,0,1,1.014,0A28.037,28.037,0,0,1,168.812,9.1a24.173,24.173,0,0,1,.463,8.96,22.531,22.531,0,0,1-4.186,10.134.617.617,0,0,1-.5.254m0-26.664a28.335,28.335,0,0,0-3.032,7.64,21.231,21.231,0,0,0,3.031,17.333,21.238,21.238,0,0,0,3.021-17.375,28.275,28.275,0,0,0-3.021-7.6" transform="translate(-145.437)" fill="#4c903f"/>
    <path id="Path_159" data-name="Path 159" d="M19.153,182.877h-.025a21.765,21.765,0,0,1-14.681-6.428,22.405,22.405,0,0,1-4.393-6.025.617.617,0,0,1,.6-.869,27.119,27.119,0,0,1,7.675,1.864c5.441,2.175,9.381,5.841,11.393,10.6a.617.617,0,0,1-.568.857M1.71,170.914a22.982,22.982,0,0,0,3.64,4.693,20.2,20.2,0,0,0,12.814,5.973,18.624,18.624,0,0,0-10.294-9.016,27.518,27.518,0,0,0-6.16-1.65" transform="translate(0 -154.429)" fill="#4c903f"/>
    <path id="Path_160" data-name="Path 160" d="M19.2,306.277a20.369,20.369,0,0,1-4.108-.38.617.617,0,0,1-.317-1.021,19.575,19.575,0,0,1,4.954-3.6,18.212,18.212,0,0,1,12.879-1.647.617.617,0,0,1,.314,1.008,17.2,17.2,0,0,1-11.5,5.536c-.79.076-1.537.106-2.222.106m-3.973-.981h0Zm1.344-.411a22.281,22.281,0,0,0,4.772.055,15.989,15.989,0,0,0,9.911-4.341,16.738,16.738,0,0,0-10.916,1.749,20.025,20.025,0,0,0-3.767,2.538" transform="translate(-13.306 -272.423)" fill="#4c903f"/>
    <path id="Path_161" data-name="Path 161" d="M208.415,186.512a.617.617,0,0,1-.617-.617V160.966a.617.617,0,1,1,1.233,0v24.929a.617.617,0,0,1-.617.617" transform="translate(-189.261 -146.045)" fill="#4c903f"/>
    <path id="Path_162" data-name="Path 162" d="M124.778,328.581a.617.617,0,0,1-.61-.71,11.051,11.051,0,0,1,1.369-3.573,10.676,10.676,0,0,1,6.526-4.963.617.617,0,0,1,.774.674,9.712,9.712,0,0,1-4.274,6.72,13.488,13.488,0,0,1-3.612,1.827.62.62,0,0,1-.174.025m6.646-7.744a9.266,9.266,0,0,0-4.8,4.046,10.7,10.7,0,0,0-.946,2.073,12.916,12.916,0,0,0,2.2-1.255,8.6,8.6,0,0,0,3.543-4.864" transform="translate(-113.085 -290.829)" fill="#4c903f"/>
    <path id="Path_163" data-name="Path 163" d="M208.414,182.874a.617.617,0,0,1-.568-.857c2.012-4.76,5.952-8.426,11.393-10.6a27.118,27.118,0,0,1,7.675-1.864.617.617,0,0,1,.6.869,22.408,22.408,0,0,1-4.392,6.025,21.764,21.764,0,0,1-14.681,6.428h-.025m17.442-11.962a27.563,27.563,0,0,0-6.2,1.663,18.614,18.614,0,0,0-10.259,9,20.2,20.2,0,0,0,12.814-5.973,22.985,22.985,0,0,0,3.64-4.692" transform="translate(-189.261 -154.426)" fill="#4c903f"/>
    <path id="Path_164" data-name="Path 164" d="M221.675,306.277c-.685,0-1.432-.03-2.222-.106a17.2,17.2,0,0,1-11.5-5.537.617.617,0,0,1,.314-1.008,18.212,18.212,0,0,1,12.879,1.647,19.578,19.578,0,0,1,4.954,3.6.617.617,0,0,1-.317,1.021,20.385,20.385,0,0,1-4.108.38M209.621,300.6a15.988,15.988,0,0,0,9.911,4.342,22.3,22.3,0,0,0,4.772-.055,20.027,20.027,0,0,0-3.768-2.538,16.741,16.741,0,0,0-10.916-1.749" transform="translate(-189.261 -272.424)" fill="#4c903f"/>
    <path id="Path_165" data-name="Path 165" d="M216.008,328.579a.618.618,0,0,1-.174-.025,13.49,13.49,0,0,1-3.612-1.827,9.712,9.712,0,0,1-4.274-6.72.617.617,0,0,1,.774-.674,10.677,10.677,0,0,1,6.526,4.963,11.052,11.052,0,0,1,1.369,3.573.617.617,0,0,1-.61.71m-6.646-7.744A8.6,8.6,0,0,0,212.9,325.7a12.917,12.917,0,0,0,2.2,1.254,10.69,10.69,0,0,0-.946-2.073,9.265,9.265,0,0,0-4.8-4.046" transform="translate(-189.394 -290.827)" fill="#4c903f"/>
  </g>
</svg>
