<svg width="22" height="22" viewBox="0 0 22 22" fill="none" xmlns="http://www.w3.org/2000/svg">
<path d="M10.9883 20.8677C5.54105 20.8677 1.10938 16.436 1.10938 10.9888C1.10938 5.54154 5.54105 1.10986 10.9883 1.10986C16.4355 1.10986 20.8672 5.54154 20.8672 10.9888C20.8672 16.436 16.4355 20.8677 10.9883 20.8677ZM10.9883 2.72276C6.43037 2.72276 2.72227 6.43086 2.72227 10.9888C2.72227 15.5467 6.43037 19.2548 10.9883 19.2548C15.5462 19.2548 19.2543 15.5467 19.2543 10.9888C19.2543 6.43086 15.5462 2.72276 10.9883 2.72276Z" fill="#F39221" stroke="white" stroke-width="0.8"/>
<path d="M11.2504 14.2193L11.9311 11.6318L12.4247 9.83503C12.8363 7.92896 8.57152 9.5481 7.94727 10.0349L7.99765 10.607C8.5664 10.2074 10.7184 9.69498 10.2889 11.1109L10.0967 11.8333L9.11551 15.4943C8.70389 17.4004 12.9686 15.7821 13.5929 15.2945L13.5425 14.7223C12.9738 15.1229 10.8218 15.6352 11.2504 14.2193Z" fill="#F39221" stroke="white" stroke-width="0.8"/>
<path d="M12.0362 8.21508C12.7649 8.21508 13.3556 7.62437 13.3556 6.89569C13.3556 6.16701 12.7649 5.57629 12.0362 5.57629C11.3075 5.57629 10.7168 6.16701 10.7168 6.89569C10.7168 7.62437 11.3075 8.21508 12.0362 8.21508Z" fill="#F39221" stroke="white" stroke-width="0.8"/>
</svg>
