<svg width="17" height="17" viewBox="0 0 17 17" fill="none" xmlns="http://www.w3.org/2000/svg">
<path d="M15.89 16.8875H1.08984V16.5143C1.08984 12.4339 4.40949 9.11426 8.4899 9.11426C12.5703 9.11426 15.89 12.4339 15.89 16.5143V16.8875ZM1.84651 16.1411H15.1331C14.9392 12.6451 12.0335 9.86066 8.4899 9.86066C4.94634 9.86066 2.04077 12.6451 1.84651 16.1411Z" fill="#F39221"/>
<path d="M8.48915 8.29844C6.22698 8.29844 4.38672 6.45799 4.38672 4.19582C4.38672 1.93384 6.22698 0.0933838 8.48915 0.0933838C10.7513 0.0933838 12.5916 1.93384 12.5916 4.19582C12.5916 6.45799 10.7513 8.29844 8.48915 8.29844ZM8.48915 0.83979C6.63863 0.83979 5.13313 2.34529 5.13313 4.19582C5.13313 6.04635 6.63863 7.55204 8.48915 7.55204C10.3397 7.55204 11.8452 6.04653 11.8452 4.19582C11.8452 2.34529 10.3397 0.83979 8.48915 0.83979Z" fill="#F39221"/>
</svg>
