<svg width="21" height="21" viewBox="0 0 21 21" fill="none" xmlns="http://www.w3.org/2000/svg">
<g clip-path="url(#clip0_47_1387)">
<path d="M17.9734 4.09853L14.2972 0.422393C14.0995 0.224387 13.836 0.115356 13.5561 0.115356H3.74366C3.16555 0.115356 2.69531 0.585592 2.69531 1.16371V19.8127C2.69531 20.3908 3.16555 20.8611 3.74366 20.8611H17.2321C17.8102 20.8611 18.2806 20.3908 18.2806 19.8127V4.83984C18.2806 4.55978 18.1714 4.29631 17.9734 4.09853ZM14.1928 1.29579L17.0997 4.20295H14.4872C14.3249 4.20295 14.193 4.07087 14.193 3.90859L14.1928 1.29579ZM17.2321 20.1695H3.74366C3.54681 20.1695 3.38684 20.0096 3.38684 19.8127V1.16371C3.38684 0.966852 3.54681 0.80688 3.74366 0.80688H13.5015V3.90859C13.5015 4.45213 13.9436 4.89447 14.4872 4.89447H17.5891V19.8127C17.5891 20.0096 17.4289 20.1695 17.2321 20.1695Z" fill="#F39221"/>
<path d="M15.834 7.79565H9.75201C9.56092 7.79565 9.40625 7.64098 9.40625 7.44989C9.40625 7.2588 9.56092 7.10413 9.75201 7.10413H15.834C16.0248 7.10413 16.1797 7.2588 16.1797 7.44989C16.1797 7.64098 16.0248 7.79565 15.834 7.79565Z" fill="#F39221"/>
<path d="M8.05833 7.79565H5.14264C4.95155 7.79565 4.79688 7.64098 4.79688 7.44989C4.79688 7.2588 4.95155 7.10413 5.14264 7.10413H8.05833C8.24942 7.10413 8.40409 7.2588 8.40409 7.44989C8.40409 7.64098 8.24942 7.79565 8.05833 7.79565Z" fill="#F39221"/>
<path d="M9.86597 4.89453H5.14264C4.95155 4.89453 4.79688 4.73986 4.79688 4.54876C4.79688 4.35767 4.95155 4.203 5.14264 4.203H9.8662C10.0573 4.203 10.212 4.35767 10.212 4.54876C10.212 4.73986 10.0571 4.89453 9.86597 4.89453Z" fill="#F39221"/>
<path d="M15.835 10.3312H5.14264C4.95155 10.3312 4.79688 10.1765 4.79688 9.98541C4.79688 9.79432 4.95155 9.63965 5.14264 9.63965H15.8352C16.0261 9.63965 16.181 9.79432 16.181 9.98541C16.181 10.1765 16.0258 10.3312 15.835 10.3312Z" fill="#F39221"/>
<path d="M11.2244 12.8668H5.14264C4.95155 12.8668 4.79688 12.7119 4.79688 12.5211C4.79688 12.3302 4.95155 12.1753 5.14264 12.1753H11.2246C11.4154 12.1753 11.5703 12.3302 11.5703 12.5211C11.5703 12.7119 11.4154 12.8668 11.2244 12.8668Z" fill="#F39221"/>
<path d="M15.8357 12.8668H12.92C12.7291 12.8668 12.5742 12.7119 12.5742 12.5211C12.5742 12.3302 12.7291 12.1753 12.92 12.1753H15.8357C16.0265 12.1753 16.1814 12.3302 16.1814 12.5211C16.1814 12.7119 16.0265 12.8668 15.8357 12.8668Z" fill="#F39221"/>
<path d="M15.835 15.4025H5.14264C4.95155 15.4025 4.79688 15.2476 4.79688 15.0567C4.79688 14.8658 4.95155 14.7109 5.14264 14.7109H15.8352C16.0261 14.7109 16.181 14.8658 16.181 15.0567C16.181 15.2476 16.0258 15.4025 15.835 15.4025Z" fill="#F39221"/>
<path d="M15.8357 17.938H12.92C12.7291 17.938 12.5742 17.7831 12.5742 17.5922C12.5742 17.4014 12.7291 17.2465 12.92 17.2465H15.8357C16.0265 17.2465 16.1814 17.4014 16.1814 17.5922C16.1814 17.7831 16.0265 17.938 15.8357 17.938Z" fill="#F39221"/>
</g>
<defs>
<clipPath id="clip0_47_1387">
<rect width="21" height="21" fill="white"/>
</clipPath>
</defs>
</svg>
